# xmcd
#
# Track frame offsets:
#	150
#	22585
#	42650
#	63220
#	84593
#	107220
#
# Disc length: 1777 seconds
#
# Revision: 1
# Processed by: cddbd v1.5.1PL0 Copyright (c) Steve Scherf et al.
# Submitted via: CDex 1.50Beta5
#
DISCID=4206ef06
DTITLE=雫... - "Digital" Clock Work Age〜時計仕掛けの地球〜
DYEAR=1998
DGENRE=Rock
TTITLE0=My Shine
TTITLE1=戦争を知らない大人達
TTITLE2=生存欲と私達
TTITLE3=時計仕掛けの地球
TTITLE4=涙をこらえている君に...
TTITLE5=狼
EXTD=
EXTT0=
EXTT1=
EXTT2=
EXTT3=
EXTT4=
EXTT5=
PLAYORDER=
